<mxfile host="app.diagrams.net" modified="2023-11-27T09:30:56.547Z" agent="Mozilla/5.0 (Windows NT 10.0; Win64; x64) AppleWebKit/537.36 (KHTML, like Gecko) Chrome/119.0.0.0 Safari/537.36" etag="IzZBBwxYu3Ie_yhkSL1g" version="22.1.4" type="device">
  <diagram name="第 1 页" id="Na-oA9MBbMkYQR4CmsAR">
    <mxGraphModel dx="1147" dy="620" grid="1" gridSize="10" guides="1" tooltips="1" connect="1" arrows="1" fold="1" page="1" pageScale="1" pageWidth="827" pageHeight="1169" math="0" shadow="0">
      <root>
        <mxCell id="0" />
        <mxCell id="1" parent="0" />
        <mxCell id="eHhXBxUGGAIAsymP_1dl-1" value="&lt;h1&gt;&lt;font face=&quot;Verdana&quot; style=&quot;font-size: 15px;&quot;&gt;Scene Graph&lt;/font&gt;&lt;/h1&gt;" style="swimlane;whiteSpace=wrap;html=1;startSize=30;" vertex="1" parent="1">
          <mxGeometry x="50" y="50" width="740" height="440" as="geometry" />
        </mxCell>
        <mxCell id="eHhXBxUGGAIAsymP_1dl-5" value="&lt;font style=&quot;font-size: 14px;&quot; face=&quot;Verdana&quot;&gt;Body&lt;/font&gt;" style="ellipse;whiteSpace=wrap;html=1;" vertex="1" parent="eHhXBxUGGAIAsymP_1dl-1">
          <mxGeometry x="280" y="60" width="116" height="60" as="geometry" />
        </mxCell>
        <mxCell id="eHhXBxUGGAIAsymP_1dl-10" value="" style="endArrow=classic;html=1;rounded=0;entryX=1;entryY=0;entryDx=0;entryDy=0;exitX=0;exitY=1;exitDx=0;exitDy=0;" edge="1" parent="eHhXBxUGGAIAsymP_1dl-1" source="eHhXBxUGGAIAsymP_1dl-3">
          <mxGeometry width="50" height="50" relative="1" as="geometry">
            <mxPoint x="346" y="290" as="sourcePoint" />
            <mxPoint x="222" y="144" as="targetPoint" />
          </mxGeometry>
        </mxCell>
        <mxCell id="eHhXBxUGGAIAsymP_1dl-11" value="" style="endArrow=classic;html=1;rounded=0;exitX=0.5;exitY=1;exitDx=0;exitDy=0;entryX=0.5;entryY=0;entryDx=0;entryDy=0;" edge="1" parent="eHhXBxUGGAIAsymP_1dl-1" source="eHhXBxUGGAIAsymP_1dl-5" target="eHhXBxUGGAIAsymP_1dl-13">
          <mxGeometry width="50" height="50" relative="1" as="geometry">
            <mxPoint x="386" y="120" as="sourcePoint" />
            <mxPoint x="520" y="180" as="targetPoint" />
          </mxGeometry>
        </mxCell>
        <mxCell id="eHhXBxUGGAIAsymP_1dl-13" value="&lt;font style=&quot;font-size: 14px;&quot; face=&quot;Verdana&quot;&gt;Head&lt;br&gt;&lt;/font&gt;" style="ellipse;whiteSpace=wrap;html=1;" vertex="1" parent="eHhXBxUGGAIAsymP_1dl-1">
          <mxGeometry x="570" y="200" width="116" height="60" as="geometry" />
        </mxCell>
        <mxCell id="eHhXBxUGGAIAsymP_1dl-14" value="&lt;font style=&quot;font-size: 14px;&quot; face=&quot;Verdana&quot;&gt;Tail&lt;/font&gt;" style="ellipse;whiteSpace=wrap;html=1;" vertex="1" parent="eHhXBxUGGAIAsymP_1dl-1">
          <mxGeometry x="430" y="220" width="116" height="60" as="geometry" />
        </mxCell>
        <mxCell id="eHhXBxUGGAIAsymP_1dl-15" value="" style="endArrow=classic;html=1;rounded=0;entryX=0.5;entryY=0;entryDx=0;entryDy=0;" edge="1" parent="eHhXBxUGGAIAsymP_1dl-1" target="eHhXBxUGGAIAsymP_1dl-28">
          <mxGeometry width="50" height="50" relative="1" as="geometry">
            <mxPoint x="340" y="120" as="sourcePoint" />
            <mxPoint x="410" y="290" as="targetPoint" />
          </mxGeometry>
        </mxCell>
        <mxCell id="eHhXBxUGGAIAsymP_1dl-16" value="" style="endArrow=classic;html=1;rounded=0;exitX=0.5;exitY=1;exitDx=0;exitDy=0;entryX=0.5;entryY=0;entryDx=0;entryDy=0;" edge="1" parent="eHhXBxUGGAIAsymP_1dl-1" source="eHhXBxUGGAIAsymP_1dl-5" target="eHhXBxUGGAIAsymP_1dl-14">
          <mxGeometry width="50" height="50" relative="1" as="geometry">
            <mxPoint x="318" y="150" as="sourcePoint" />
            <mxPoint x="376" y="290" as="targetPoint" />
          </mxGeometry>
        </mxCell>
        <mxCell id="eHhXBxUGGAIAsymP_1dl-22" value="" style="endArrow=classic;html=1;rounded=0;entryX=0.5;entryY=0;entryDx=0;entryDy=0;exitX=0.5;exitY=1;exitDx=0;exitDy=0;" edge="1" parent="eHhXBxUGGAIAsymP_1dl-1" target="eHhXBxUGGAIAsymP_1dl-18">
          <mxGeometry width="50" height="50" relative="1" as="geometry">
            <mxPoint x="194" y="200" as="sourcePoint" />
            <mxPoint x="390" y="260" as="targetPoint" />
          </mxGeometry>
        </mxCell>
        <mxCell id="eHhXBxUGGAIAsymP_1dl-23" value="" style="endArrow=classic;html=1;rounded=0;entryX=0.5;entryY=0;entryDx=0;entryDy=0;exitX=0.5;exitY=1;exitDx=0;exitDy=0;" edge="1" parent="eHhXBxUGGAIAsymP_1dl-1" target="eHhXBxUGGAIAsymP_1dl-19">
          <mxGeometry width="50" height="50" relative="1" as="geometry">
            <mxPoint x="194" y="200" as="sourcePoint" />
            <mxPoint x="254" y="240" as="targetPoint" />
          </mxGeometry>
        </mxCell>
        <mxCell id="eHhXBxUGGAIAsymP_1dl-24" value="" style="endArrow=classic;html=1;rounded=0;entryX=0.5;entryY=0;entryDx=0;entryDy=0;exitX=0.5;exitY=1;exitDx=0;exitDy=0;" edge="1" parent="eHhXBxUGGAIAsymP_1dl-1" target="eHhXBxUGGAIAsymP_1dl-20">
          <mxGeometry width="50" height="50" relative="1" as="geometry">
            <mxPoint x="194" y="200" as="sourcePoint" />
            <mxPoint x="264" y="250" as="targetPoint" />
          </mxGeometry>
        </mxCell>
        <mxCell id="eHhXBxUGGAIAsymP_1dl-25" value="" style="endArrow=classic;html=1;rounded=0;entryX=0.5;entryY=0;entryDx=0;entryDy=0;exitX=0.5;exitY=1;exitDx=0;exitDy=0;" edge="1" parent="eHhXBxUGGAIAsymP_1dl-1" target="eHhXBxUGGAIAsymP_1dl-21">
          <mxGeometry width="50" height="50" relative="1" as="geometry">
            <mxPoint x="194" y="200" as="sourcePoint" />
            <mxPoint x="274" y="260" as="targetPoint" />
          </mxGeometry>
        </mxCell>
        <mxCell id="eHhXBxUGGAIAsymP_1dl-28" value="&lt;font style=&quot;font-size: 15px;&quot;&gt;RB1&lt;/font&gt;" style="ellipse;whiteSpace=wrap;html=1;aspect=fixed;" vertex="1" parent="eHhXBxUGGAIAsymP_1dl-1">
          <mxGeometry x="330" y="230" width="60" height="60" as="geometry" />
        </mxCell>
        <mxCell id="eHhXBxUGGAIAsymP_1dl-29" value="&lt;font style=&quot;font-size: 15px;&quot;&gt;RB2&lt;/font&gt;" style="ellipse;whiteSpace=wrap;html=1;aspect=fixed;" vertex="1" parent="eHhXBxUGGAIAsymP_1dl-1">
          <mxGeometry x="330" y="330" width="60" height="60" as="geometry" />
        </mxCell>
        <mxCell id="eHhXBxUGGAIAsymP_1dl-32" value="" style="endArrow=classic;html=1;rounded=0;entryX=0.5;entryY=0;entryDx=0;entryDy=0;exitX=0.5;exitY=1;exitDx=0;exitDy=0;" edge="1" parent="eHhXBxUGGAIAsymP_1dl-1" source="eHhXBxUGGAIAsymP_1dl-28" target="eHhXBxUGGAIAsymP_1dl-29">
          <mxGeometry width="50" height="50" relative="1" as="geometry">
            <mxPoint x="244" y="286" as="sourcePoint" />
            <mxPoint x="216" y="360" as="targetPoint" />
          </mxGeometry>
        </mxCell>
        <mxCell id="eHhXBxUGGAIAsymP_1dl-34" value="" style="endArrow=classic;html=1;rounded=0;entryX=0.5;entryY=0;entryDx=0;entryDy=0;exitX=0.5;exitY=1;exitDx=0;exitDy=0;" edge="1" parent="eHhXBxUGGAIAsymP_1dl-1" target="eHhXBxUGGAIAsymP_1dl-35" source="eHhXBxUGGAIAsymP_1dl-5">
          <mxGeometry width="50" height="50" relative="1" as="geometry">
            <mxPoint x="230" y="120" as="sourcePoint" />
            <mxPoint x="300" y="290" as="targetPoint" />
          </mxGeometry>
        </mxCell>
        <mxCell id="eHhXBxUGGAIAsymP_1dl-35" value="&lt;font style=&quot;font-size: 15px;&quot;&gt;LB1&lt;/font&gt;" style="ellipse;whiteSpace=wrap;html=1;aspect=fixed;" vertex="1" parent="eHhXBxUGGAIAsymP_1dl-1">
          <mxGeometry x="250" y="230" width="60" height="60" as="geometry" />
        </mxCell>
        <mxCell id="eHhXBxUGGAIAsymP_1dl-36" value="&lt;font style=&quot;font-size: 15px;&quot;&gt;LB2&lt;/font&gt;" style="ellipse;whiteSpace=wrap;html=1;aspect=fixed;" vertex="1" parent="eHhXBxUGGAIAsymP_1dl-1">
          <mxGeometry x="250" y="330" width="60" height="60" as="geometry" />
        </mxCell>
        <mxCell id="eHhXBxUGGAIAsymP_1dl-37" value="" style="endArrow=classic;html=1;rounded=0;entryX=0.5;entryY=0;entryDx=0;entryDy=0;exitX=0.5;exitY=1;exitDx=0;exitDy=0;" edge="1" parent="eHhXBxUGGAIAsymP_1dl-1" source="eHhXBxUGGAIAsymP_1dl-35" target="eHhXBxUGGAIAsymP_1dl-36">
          <mxGeometry width="50" height="50" relative="1" as="geometry">
            <mxPoint x="164" y="286" as="sourcePoint" />
            <mxPoint x="136" y="360" as="targetPoint" />
          </mxGeometry>
        </mxCell>
        <mxCell id="eHhXBxUGGAIAsymP_1dl-38" value="" style="endArrow=classic;html=1;rounded=0;entryX=0.5;entryY=0;entryDx=0;entryDy=0;exitX=0.5;exitY=1;exitDx=0;exitDy=0;" edge="1" parent="eHhXBxUGGAIAsymP_1dl-1" target="eHhXBxUGGAIAsymP_1dl-39" source="eHhXBxUGGAIAsymP_1dl-5">
          <mxGeometry width="50" height="50" relative="1" as="geometry">
            <mxPoint x="130" y="120" as="sourcePoint" />
            <mxPoint x="200" y="290" as="targetPoint" />
          </mxGeometry>
        </mxCell>
        <mxCell id="eHhXBxUGGAIAsymP_1dl-39" value="&lt;font style=&quot;font-size: 15px;&quot;&gt;RF1&lt;/font&gt;" style="ellipse;whiteSpace=wrap;html=1;aspect=fixed;" vertex="1" parent="eHhXBxUGGAIAsymP_1dl-1">
          <mxGeometry x="160" y="230" width="60" height="60" as="geometry" />
        </mxCell>
        <mxCell id="eHhXBxUGGAIAsymP_1dl-40" value="&lt;font style=&quot;font-size: 15px;&quot;&gt;RF2&lt;/font&gt;" style="ellipse;whiteSpace=wrap;html=1;aspect=fixed;" vertex="1" parent="eHhXBxUGGAIAsymP_1dl-1">
          <mxGeometry x="160" y="330" width="60" height="60" as="geometry" />
        </mxCell>
        <mxCell id="eHhXBxUGGAIAsymP_1dl-41" value="" style="endArrow=classic;html=1;rounded=0;entryX=0.5;entryY=0;entryDx=0;entryDy=0;exitX=0.5;exitY=1;exitDx=0;exitDy=0;" edge="1" parent="eHhXBxUGGAIAsymP_1dl-1" source="eHhXBxUGGAIAsymP_1dl-39" target="eHhXBxUGGAIAsymP_1dl-40">
          <mxGeometry width="50" height="50" relative="1" as="geometry">
            <mxPoint x="74" y="286" as="sourcePoint" />
            <mxPoint x="46" y="360" as="targetPoint" />
          </mxGeometry>
        </mxCell>
        <mxCell id="eHhXBxUGGAIAsymP_1dl-42" value="" style="endArrow=classic;html=1;rounded=0;entryX=0.5;entryY=0;entryDx=0;entryDy=0;exitX=0.5;exitY=1;exitDx=0;exitDy=0;" edge="1" parent="eHhXBxUGGAIAsymP_1dl-1" target="eHhXBxUGGAIAsymP_1dl-43" source="eHhXBxUGGAIAsymP_1dl-5">
          <mxGeometry width="50" height="50" relative="1" as="geometry">
            <mxPoint x="50" y="115" as="sourcePoint" />
            <mxPoint x="120" y="285" as="targetPoint" />
          </mxGeometry>
        </mxCell>
        <mxCell id="eHhXBxUGGAIAsymP_1dl-43" value="&lt;font style=&quot;font-size: 15px;&quot;&gt;LF1&lt;/font&gt;" style="ellipse;whiteSpace=wrap;html=1;aspect=fixed;" vertex="1" parent="eHhXBxUGGAIAsymP_1dl-1">
          <mxGeometry x="70" y="230" width="60" height="60" as="geometry" />
        </mxCell>
        <mxCell id="eHhXBxUGGAIAsymP_1dl-44" value="&lt;font style=&quot;font-size: 15px;&quot;&gt;LF2&lt;/font&gt;" style="ellipse;whiteSpace=wrap;html=1;aspect=fixed;" vertex="1" parent="eHhXBxUGGAIAsymP_1dl-1">
          <mxGeometry x="70" y="330" width="60" height="60" as="geometry" />
        </mxCell>
        <mxCell id="eHhXBxUGGAIAsymP_1dl-45" value="" style="endArrow=classic;html=1;rounded=0;entryX=0.5;entryY=0;entryDx=0;entryDy=0;exitX=0.5;exitY=1;exitDx=0;exitDy=0;" edge="1" parent="eHhXBxUGGAIAsymP_1dl-1" source="eHhXBxUGGAIAsymP_1dl-43" target="eHhXBxUGGAIAsymP_1dl-44">
          <mxGeometry width="50" height="50" relative="1" as="geometry">
            <mxPoint x="-16" y="286" as="sourcePoint" />
            <mxPoint x="-44" y="360" as="targetPoint" />
          </mxGeometry>
        </mxCell>
      </root>
    </mxGraphModel>
  </diagram>
</mxfile>
